<mxfile host="Electron" agent="Mozilla/5.0 (Macintosh; Intel Mac OS X 10_15_7) AppleWebKit/537.36 (KHTML, like Gecko) draw.io/24.7.17 Chrome/128.0.6613.36 Electron/32.0.1 Safari/537.36" version="24.7.17">
  <diagram id="prtHgNgQTEPvFCAcTncT" name="context-controlled-provider">
    <mxGraphModel dx="1026" dy="658" grid="1" gridSize="10" guides="1" tooltips="1" connect="1" arrows="1" fold="1" page="1" pageScale="1" pageWidth="800" pageHeight="400" math="0" shadow="0">
      <root>
        <mxCell id="0" />
        <mxCell id="1" parent="0" />
        <mxCell id="MOKP7YGG6eqXwv3LZJ8Z-2" value="" style="rounded=0;whiteSpace=wrap;html=1;strokeColor=none;glass=0;shadow=0;fillColor=#F5F5F5;textShadow=1;fontColor=#333333;fontFamily=Geist Mono;fontStyle=1" parent="1" vertex="1">
          <mxGeometry width="800" height="400" as="geometry" />
        </mxCell>
        <mxCell id="MOKP7YGG6eqXwv3LZJ8Z-4" value="[Fine-grained Context Controlled @provider]" style="text;html=1;align=center;verticalAlign=middle;whiteSpace=wrap;rounded=0;fontFamily=Geist Mono;fontSize=18;fontColor=#333333;fontStyle=1" parent="1" vertex="1">
          <mxGeometry x="135" y="20" width="530" height="30" as="geometry" />
        </mxCell>
        <mxCell id="MOKP7YGG6eqXwv3LZJ8Z-5" value="&lt;font style=&quot;font-size: 20px;&quot;&gt;Context.global&lt;/font&gt;" style="text;html=1;align=center;verticalAlign=middle;whiteSpace=wrap;rounded=0;fontStyle=1;fontFamily=Geist Mono;fontSize=20;fontColor=#333333;" parent="1" vertex="1">
          <mxGeometry x="370" y="60" width="60" height="30" as="geometry" />
        </mxCell>
        <mxCell id="MOKP7YGG6eqXwv3LZJ8Z-8" value="" style="rounded=0;whiteSpace=wrap;html=1;strokeColor=none;fillColor=#FFFFFF;fontColor=#333333;fontFamily=Geist Mono;fontStyle=1" parent="1" vertex="1">
          <mxGeometry x="100" y="100" width="190" height="270" as="geometry" />
        </mxCell>
        <mxCell id="MOKP7YGG6eqXwv3LZJ8Z-10" value="" style="rounded=0;whiteSpace=wrap;html=1;strokeColor=none;fillColor=#FFFFFF;fontColor=#333333;fontFamily=Geist Mono;fontStyle=1" parent="1" vertex="1">
          <mxGeometry x="510" y="100" width="190" height="270" as="geometry" />
        </mxCell>
        <mxCell id="MOKP7YGG6eqXwv3LZJ8Z-15" value="&lt;div&gt;&lt;font style=&quot;font-size: 16px;&quot;&gt;Context A&lt;/font&gt;&lt;/div&gt;" style="text;html=1;align=center;verticalAlign=middle;whiteSpace=wrap;rounded=0;fontStyle=1;fontFamily=Geist Mono;fontSize=18;fontColor=#333333;" parent="1" vertex="1">
          <mxGeometry x="142.5" y="110" width="105" height="30" as="geometry" />
        </mxCell>
        <mxCell id="MOKP7YGG6eqXwv3LZJ8Z-17" value="Default @provider" style="rounded=0;whiteSpace=wrap;html=1;strokeColor=none;fillColor=#f8cecc;fontFamily=Geist Mono;fontColor=#333333;fontStyle=1" parent="1" vertex="1">
          <mxGeometry x="300" y="130" width="200" height="20" as="geometry" />
        </mxCell>
        <mxCell id="MOKP7YGG6eqXwv3LZJ8Z-18" value="@contextualize(context_a)" style="rounded=0;whiteSpace=wrap;html=1;strokeColor=none;fillColor=#f8cecc;fontFamily=Geist Mono;fontColor=#333333;fontStyle=1" parent="1" vertex="1">
          <mxGeometry x="110" y="170" width="390" height="20" as="geometry" />
        </mxCell>
        <mxCell id="MOKP7YGG6eqXwv3LZJ8Z-19" value="@contextualize(context_a, context_b)" style="rounded=0;whiteSpace=wrap;html=1;strokeColor=none;fillColor=#f8cecc;fontFamily=Geist Mono;fontColor=#333333;fontStyle=1" parent="1" vertex="1">
          <mxGeometry x="110" y="210" width="580" height="20" as="geometry" />
        </mxCell>
        <mxCell id="MOKP7YGG6eqXwv3LZJ8Z-20" value="@isolated" style="rounded=0;whiteSpace=wrap;html=1;strokeColor=none;fillColor=#f8cecc;fontFamily=Geist Mono;fontColor=#333333;fontStyle=1" parent="1" vertex="1">
          <mxGeometry x="520" y="330" width="170" height="20" as="geometry" />
        </mxCell>
        <mxCell id="MOKP7YGG6eqXwv3LZJ8Z-24" value="@isolated" style="rounded=0;whiteSpace=wrap;html=1;strokeColor=none;fillColor=#f8cecc;fontFamily=Geist Mono;fontColor=#333333;fontStyle=1" parent="1" vertex="1">
          <mxGeometry x="110" y="330" width="170" height="20" as="geometry" />
        </mxCell>
        <mxCell id="MOKP7YGG6eqXwv3LZJ8Z-25" value="@local" style="rounded=0;whiteSpace=wrap;html=1;strokeColor=none;fillColor=#f8cecc;fontFamily=Geist Mono;fontColor=#333333;fontStyle=1" parent="1" vertex="1">
          <mxGeometry x="110" y="250" width="170" height="20" as="geometry" />
        </mxCell>
        <mxCell id="MOKP7YGG6eqXwv3LZJ8Z-26" value="@local" style="rounded=0;whiteSpace=wrap;html=1;strokeColor=none;fillColor=#f8cecc;fontFamily=Geist Mono;fontColor=#333333;fontStyle=1" parent="1" vertex="1">
          <mxGeometry x="520" y="250" width="170" height="20" as="geometry" />
        </mxCell>
        <mxCell id="MOKP7YGG6eqXwv3LZJ8Z-27" value="" style="endArrow=block;startArrow=block;html=1;rounded=0;exitX=1;exitY=0.5;exitDx=0;exitDy=0;entryX=0;entryY=0.5;entryDx=0;entryDy=0;startFill=0;endFill=0;fontColor=#333333;fontFamily=Geist Mono;fontStyle=1" parent="1" source="MOKP7YGG6eqXwv3LZJ8Z-25" target="MOKP7YGG6eqXwv3LZJ8Z-26" edge="1">
          <mxGeometry width="50" height="50" relative="1" as="geometry">
            <mxPoint x="400" y="170" as="sourcePoint" />
            <mxPoint x="450" y="120" as="targetPoint" />
          </mxGeometry>
        </mxCell>
        <mxCell id="MOKP7YGG6eqXwv3LZJ8Z-28" value="Same instance" style="edgeLabel;html=1;align=center;verticalAlign=middle;resizable=0;points=[];labelBackgroundColor=#D5E8D4;fontFamily=Geist Mono;fontColor=#333333;fontStyle=1" parent="MOKP7YGG6eqXwv3LZJ8Z-27" vertex="1" connectable="0">
          <mxGeometry x="-0.0042" y="1" relative="1" as="geometry">
            <mxPoint x="-1" as="offset" />
          </mxGeometry>
        </mxCell>
        <mxCell id="MOKP7YGG6eqXwv3LZJ8Z-30" value="" style="endArrow=block;startArrow=block;html=1;rounded=0;exitX=1;exitY=0.5;exitDx=0;exitDy=0;entryX=0;entryY=0.5;entryDx=0;entryDy=0;dashed=1;startFill=0;endFill=0;fontColor=#333333;fontFamily=Geist Mono;fontStyle=1" parent="1" source="MOKP7YGG6eqXwv3LZJ8Z-24" target="MOKP7YGG6eqXwv3LZJ8Z-20" edge="1">
          <mxGeometry width="50" height="50" relative="1" as="geometry">
            <mxPoint x="290" y="310" as="sourcePoint" />
            <mxPoint x="530" y="310" as="targetPoint" />
          </mxGeometry>
        </mxCell>
        <mxCell id="MOKP7YGG6eqXwv3LZJ8Z-31" value="Different instance" style="edgeLabel;html=1;align=center;verticalAlign=middle;resizable=0;points=[];labelBackgroundColor=#D5E8D4;fontFamily=Geist Mono;fontColor=#333333;fontStyle=1" parent="MOKP7YGG6eqXwv3LZJ8Z-30" vertex="1" connectable="0">
          <mxGeometry x="-0.0042" y="1" relative="1" as="geometry">
            <mxPoint x="-1" as="offset" />
          </mxGeometry>
        </mxCell>
        <mxCell id="MOKP7YGG6eqXwv3LZJ8Z-32" value="(Assume these two are contextualized to a &amp;amp; b)" style="text;html=1;align=center;verticalAlign=middle;whiteSpace=wrap;rounded=0;fontFamily=Geist Mono;fontColor=#333333;fontStyle=1" parent="1" vertex="1">
          <mxGeometry x="328" y="280" width="145" height="40" as="geometry" />
        </mxCell>
        <mxCell id="MOKP7YGG6eqXwv3LZJ8Z-33" value="contextualized provider is accessible from&lt;div&gt;context &amp;amp; global&lt;/div&gt;" style="text;html=1;align=center;verticalAlign=middle;whiteSpace=wrap;rounded=0;fontFamily=Geist Mono;fontColor=#333333;fontStyle=1" parent="1" vertex="1">
          <mxGeometry x="515" y="150" width="180" height="40" as="geometry" />
        </mxCell>
        <mxCell id="MOKP7YGG6eqXwv3LZJ8Z-35" value="&lt;div&gt;&lt;font style=&quot;font-size: 16px;&quot;&gt;Context B&lt;/font&gt;&lt;/div&gt;" style="text;html=1;align=center;verticalAlign=middle;whiteSpace=wrap;rounded=0;fontStyle=1;fontFamily=Geist Mono;fontSize=18;fontColor=#333333;" parent="1" vertex="1">
          <mxGeometry x="557.5" y="110" width="95" height="30" as="geometry" />
        </mxCell>
      </root>
    </mxGraphModel>
  </diagram>
</mxfile>
